<?xml version="1.0" encoding="UTF-8" standalone="no"?>
<svg
   viewBox="0 0 200 200"
   version="1.1"
   id="svg3"
   sodipodi:docname="logo.svg"
   xmlns:inkscape="http://www.inkscape.org/namespaces/inkscape"
   xmlns:sodipodi="http://sodipodi.sourceforge.net/DTD/sodipodi-0.dtd"
   xmlns="http://www.w3.org/2000/svg"
   xmlns:svg="http://www.w3.org/2000/svg">
  <defs
     id="defs3" />
  <sodipodi:namedview
     id="namedview3"
     pagecolor="#505050"
     bordercolor="#eeeeee"
     borderopacity="1"
     inkscape:showpageshadow="0"
     inkscape:pageopacity="0"
     inkscape:pagecheckerboard="0"
     inkscape:deskcolor="#d1d1d1" />
  <style
     id="style1">&#10;        .e-shape {&#10;            font-size: 150px;&#10;            font-family: &quot;Noto Sans&quot;;&#10;            font-weight: 400;&#10;            fill: var(--violet-5, #845ef7);&#10;        }&#10;&#10;        .d-shape {&#10;            font-size: 150px;&#10;            font-family: &quot;Noto Sans&quot;;&#10;            font-weight: 400;&#10;            fill: var(--blue-5, #339af0);&#10;        }&#10;&#10;        .c-shape {&#10;            stroke: var(--indigo-5, #5c7cfa);&#10;            fill: none;&#10;        }&#10;&#10;    </style>
  <mask
     id="c-mask">
    <!-- Tous les pixels blancs sont visibles -->
    <rect
       x="0"
       y="0"
       width="200"
       height="200"
       fill="white"
       id="rect1" />
    <!-- Tous les pixels noirs sont invisibles -->
    <rect
       x="100"
       y="40"
       width="200"
       height="120"
       fill="black"
       id="rect2" />
  </mask>
  <circle
     class="c-shape"
     cx="102"
     cy="100"
     r="85"
     stroke-width="9"
     mask="url(#c-mask)"
     id="circle2" />
  <path
     d="m 130.25,158.5 q -15,0 -24,-10.35 -9,-10.5 -9,-31.2 0,-20.7 9,-31.2 9.15,-10.65 24.15,-10.65 9.3,0 15.15,3.45 6,3.45 9.75,8.4 h 0.9 q -0.15,-1.95 -0.6,-5.7 -0.3,-3.9 -0.3,-6.15 V 43 h 13.2 v 114 h -10.65 l -1.95,-10.8 h -0.6 q -3.6,5.1 -9.6,8.7 -6,3.6 -15.45,3.6 z m 2.1,-10.95 q 12.75,0 17.85,-6.9 5.25,-7.05 5.25,-21.15 v -2.4 q 0,-15 -4.95,-22.95 -4.95,-8.1 -18.3,-8.1 -10.65,0 -16.05,8.55 -5.25,8.4 -5.25,22.65 0,14.4 5.25,22.35 5.4,7.95 16.2,7.95 z"
     id="text2"
     class="d-shape"
     style="font-size:150px;font-family:'Noto Sans'"
     aria-label="d" />
  <path
     d="m 77.8,75.1 q 10.35,0 17.7,4.5 7.5,4.5 11.4,12.75 4.05,8.1 4.05,19.05 v 7.95 H 55.9 q 0.3,13.65 6.9,20.85 6.75,7.05 18.75,7.05 7.65,0 13.5,-1.35 6,-1.5 12.3,-4.2 v 11.55 q -6.15,2.7 -12.15,3.9 -6,1.35 -14.25,1.35 -11.4,0 -20.25,-4.65 -8.7,-4.65 -13.65,-13.8 -4.8,-9.3 -4.8,-22.65 0,-13.2 4.35,-22.65 4.5,-9.45 12.45,-14.55 8.1,-5.1 18.75,-5.1 z m -0.15,10.8 q -9.45,0 -15,6.15 -5.4,6 -6.45,16.8 H 97.15 Q 97,98.65 92.35,92.35 87.7,85.9 77.65,85.9 Z"
     id="text3"
     class="e-shape"
     style="font-size:150px;font-family:'Noto Sans'"
     aria-label="e" />
  <!-- <line x1="125" y1="100" x2="125" y2="50" fill="none" stroke="cyan" /> -->
</svg>
